<svg viewBox="0 0 1219 300" fill="none" xmlns="http://www.w3.org/2000/svg">
<path d="M396 0H451.5C451.5 67.5 425.5 127.5 394.5 161L451.5 300H396L352 193C343.5 197.5 326.5 203 316.5 204V149.5C355.5 142 398 79.5 396 0Z" fill="white"/>
<path d="M246 72H301.5C301.5 72 300.765 210.375 301.5 300H246V72Z" fill="white"/>
<path d="M117 57V15H330V57H117Z" fill="white"/>
<path d="M0 0L55.4996 299.931L111 300L55.5001 0H0Z" fill="white"/>
<path d="M145.5 72V198.464C145.5 220 137 234 115.5 244L126 296.5C158.5 289.5 201 261 201 198.464V72H145.5Z" fill="white"/>
<path d="M1071 273V57H1110V159C1142.25 159 1179 119.25 1179 57H1218C1218.75 103.5 1197 148.5 1176 168.75L1218 273H1179L1145.25 190.5C1139.25 193.5 1122 198 1110 198V273H1071Z" fill="white"/>
<path d="M993 141H1032V273H993V141Z" fill="white"/>
<path d="M993 141H1032V273H993V141Z" fill="white"/>
<path d="M1032 57H837V96H915.007V273H953.995V96H1032V57Z" fill="white"/>
<path d="M768 57H729V199.637C729 297 876 297 876 199.637V135.075H837V199.637C837 246 768 246 768 199.638V57Z" fill="white"/>
<path d="M582 57H543L627 273H690V57H651V234L582 57Z" fill="white"/>
</svg>
