<svg width="161" height="156" viewBox="0 0 161 156" fill="currentColor" xmlns="http://www.w3.org/2000/svg">
    <path d="M0.5 100.977V0H19V69.2272C19 88.5 49 88.4544 49 69.2272V23.5H67.5V68C67 90 56.5 100.977 34 100.977H0.5Z" />
    <path d="M42 17.5V0H112.5V17.5H42Z" />
    <path d="M154 0H136C136 23.5 121.5 48.5 104.5 48.5V23.5H85.5V100H104V68C111.048 67.0919 114.598 66.165 119 62.5L136.5 100H159L134.5 51.5C147 40.5 154.181 22.3394 154 0Z" />
    <path d="M9 117H2L11.5 155H22.5L32 117H25.5L17 149L9 117Z" />
    <path d="M43.5 117H36V144C36 160 62 160 62 144V117H54.5V143C54.5 150.5 43.5 150.5 43.5 143V117Z" />
    <path d="M95 117H67V123.5H77.5V155H84.5V123.5H95V117Z" />
    <path d="M125 117H101V123.5H109.5V148.5H101V155H125V148.5H116.5V123.5H125V117Z" />
    <path d="M132.5 155V117H140V135.5C145 135.5 151.5 127.5 151.5 117H158.5C158.58 126.367 156.892 130.722 151 137L160.5 155H152.5L145.5 141C144.5 141.5 141.5 142.5 139.5 142.5V155H132.5Z" />
</svg>